<?xml version="1.0" standalone="no"?>
<svg xmlns="http://www.w3.org/2000/svg" viewBox="0 0 331.736 53" width="331.736" height="53"><rect fill="none" stroke="#f29b18" stroke-width="3" width="328.736" height="50" x="1.5" y="1.5"></rect><g fill="#01427c" color="#01427c" transform="translate(12, 12.001) scale(0.29)"><svg width="100.0" height="100.0" x="0.0" y="0.0" viewBox="0 0 100 100"><path fill="currentColor" d="M50.344,1.375C23.506,1.375,1.75,23.131,1.75,49.969c0,26.837,21.756,48.594,48.594,48.594  c26.837,0,48.594-21.757,48.594-48.594C98.938,23.131,77.181,1.375,50.344,1.375z M48.375,2.375h3.25V27.25h-3.25V2.375z M51.625,97  h-3.25V72.125h3.25V97z M50,70.438c-11.287,0-20.438-9.15-20.438-20.438S38.713,29.562,50,29.562S70.438,38.713,70.438,50  S61.287,70.438,50,70.438z"></path></svg></g><line x1="51.5" y1="0" x2="51.5" y2="100%" stroke="#f29b18" stroke-width="3"></line><path fill="#01427c" fill-rule="nonzero" d="M8.06 10.70L10.27 16.03L7.63 16.03L5.57 10.92Q5.28 10.22 4.86 10.00Q4.44 9.77 3.58 9.77L3.58 9.77L2.45 9.77L2.45 16.03L0 16.03L0 1.32L4.92 1.32Q7.54 1.32 8.59 2.60Q9.65 3.89 9.65 5.71L9.65 5.71Q9.65 7.06 9.01 8.10Q8.38 9.14 6.82 9.55L6.82 9.55Q7.68 9.86 8.06 10.70L8.06 10.70ZM2.45 8.88L4.66 8.88Q5.95 8.88 6.58 7.96Q7.20 7.03 7.20 5.71L7.20 5.71Q7.20 4.25 6.58 3.24Q5.95 2.23 4.66 2.23L4.66 2.23L2.45 2.23L2.45 8.88ZM18.41 16.32Q15.38 16.32 13.93 14.46Q12.48 12.60 12.48 8.69L12.48 8.69Q12.48 4.73 13.92 2.88Q15.36 1.03 18.41 1.03L18.41 1.03Q21.48 1.03 22.92 2.89Q24.36 4.75 24.36 8.69L24.36 8.69Q24.36 12.60 22.91 14.46Q21.46 16.32 18.41 16.32L18.41 16.32ZM18.41 15.29Q20.18 15.29 21.05 13.67Q21.91 12.05 21.91 8.69L21.91 8.69Q21.91 5.28 21.05 3.66Q20.18 2.04 18.41 2.04L18.41 2.04Q16.63 2.04 15.78 3.65Q14.93 5.26 14.93 8.69L14.93 8.69Q14.93 12.10 15.78 13.69Q16.63 15.29 18.41 15.29L18.41 15.29ZM32.78 16.32Q29.76 16.32 28.31 14.46Q26.86 12.60 26.86 8.69L26.86 8.69Q26.86 4.73 28.30 2.88Q29.74 1.03 32.78 1.03L32.78 1.03Q35.86 1.03 37.30 2.89Q38.74 4.75 38.74 8.69L38.74 8.69Q38.74 12.60 37.28 14.46Q35.83 16.32 32.78 16.32L32.78 16.32ZM32.78 15.29Q34.56 15.29 35.42 13.67Q36.29 12.05 36.29 8.69L36.29 8.69Q36.29 5.28 35.42 3.66Q34.56 2.04 32.78 2.04L32.78 2.04Q31.01 2.04 30.16 3.65Q29.30 5.26 29.30 8.69L29.30 8.69Q29.30 12.10 30.16 13.69Q31.01 15.29 32.78 15.29L32.78 15.29ZM39.98 1.32L50.26 1.32L50.26 2.54L46.37 2.54L46.37 16.03L43.92 16.03L43.92 2.54L39.98 2.54L39.98 1.32ZM61.78 0.19Q62.54 0.19 63.24 0.42Q63.94 0.65 64.66 1.08L64.66 1.08L63.84 2.83Q63.48 2.28 62.98 1.94Q62.47 1.61 61.94 1.61L61.94 1.61Q61.27 1.61 60.90 2.05Q60.53 2.50 60.53 3.24L60.53 3.24L60.53 4.51L62.95 4.51L62.95 5.74L60.53 5.74L60.53 16.03L58.10 16.03L58.10 5.74L56.23 5.74L56.23 4.51L58.10 4.51L58.10 3.89Q58.10 2.06 59.05 1.13Q60 0.19 61.78 0.19L61.78 0.19ZM67.03 6.70Q67.58 5.66 68.58 5.04Q69.58 4.42 70.97 4.42L70.97 4.42L70.97 6.19Q67.27 6.19 67.27 9.07L67.27 9.07L67.25 9.07L67.25 16.03L64.82 16.03L64.82 4.51L65.88 4.51L67.03 6.70ZM75.31 16.32Q73.85 16.32 73.00 15.52Q72.14 14.71 72.14 13.32L72.14 13.32Q72.14 11.83 73.21 10.98Q74.28 10.13 76.46 9.74L76.46 9.74L79.13 9.31L79.13 8.14Q79.13 5.42 77.06 5.42L77.06 5.42Q75.84 5.42 75.29 6.12Q74.74 6.82 74.66 8.26L74.66 8.26L72.65 8.04Q72.79 6.14 73.80 5.18Q74.81 4.22 77.11 4.22L77.11 4.22Q79.34 4.22 80.45 5.22Q81.55 6.22 81.55 8.23L81.55 8.23L81.55 16.03L80.02 16.03L79.27 14.35Q78.53 15.31 77.50 15.82Q76.46 16.32 75.31 16.32L75.31 16.32ZM76.18 15.05Q76.99 15.05 77.80 14.57Q78.60 14.09 79.13 13.44L79.13 13.44L79.13 10.30L76.78 10.75Q75.58 11.02 74.96 11.59Q74.35 12.17 74.35 13.15L74.35 13.15Q74.35 14.02 74.84 14.53Q75.34 15.05 76.18 15.05L76.18 15.05ZM97.90 4.22Q99.74 4.22 100.64 5.18Q101.54 6.14 101.54 7.90L101.54 7.90L101.54 16.03L99.14 16.03L99.14 7.82Q99.14 6.72 98.64 6.14Q98.14 5.57 97.18 5.57L97.18 5.57Q95.74 5.57 94.51 6.62L94.51 6.62Q94.68 7.30 94.68 7.90L94.68 7.90L94.68 16.03L92.23 16.03L92.23 7.82Q92.23 5.57 90.22 5.57L90.22 5.57Q88.85 5.57 87.67 6.58L87.67 6.58L87.67 16.03L85.25 16.03L85.25 4.51L86.30 4.51L87.24 5.69Q88.01 5.04 88.97 4.63Q89.93 4.22 90.96 4.22L90.96 4.22Q93.26 4.22 94.15 5.71L94.15 5.71Q94.90 5.06 95.87 4.64Q96.84 4.22 97.90 4.22L97.90 4.22ZM114.31 10.42L106.87 10.42L106.87 10.46Q106.87 13.01 107.48 14.06Q108.10 15.12 109.58 15.12L109.58 15.12Q112.03 15.12 112.15 12.60L112.15 12.60L114.14 12.70Q113.98 14.38 112.92 15.35Q111.86 16.32 109.51 16.32L109.51 16.32Q106.80 16.32 105.62 14.82Q104.45 13.32 104.45 10.27L104.45 10.27Q104.45 7.54 105.56 5.88Q106.68 4.22 109.49 4.22L109.49 4.22Q112.20 4.22 113.26 5.87Q114.31 7.51 114.31 10.18L114.31 10.18L114.31 10.42ZM109.44 5.42Q108.17 5.42 107.59 6.36Q107.02 7.30 106.90 9.22L106.90 9.22L111.96 9.22Q111.89 7.34 111.32 6.38Q110.76 5.42 109.44 5.42L109.44 5.42ZM129.10 4.51L130.54 4.51L127.54 16.03L124.87 16.03L123.02 7.85L120.96 16.03L118.27 16.03L115.73 4.51L118.18 4.51L120.14 14.16L122.47 4.51L123.89 4.51L123.86 4.56L123.94 4.51L124.73 4.51L126.74 14.21L129.10 4.51ZM137.06 16.32Q134.16 16.32 133.02 14.65Q131.88 12.98 131.88 10.27L131.88 10.27Q131.88 7.54 133.02 5.88Q134.16 4.22 137.06 4.22L137.06 4.22Q139.94 4.22 141.10 5.89Q142.25 7.56 142.25 10.27L142.25 10.27Q142.25 16.32 137.06 16.32L137.06 16.32ZM137.06 15.12Q138.65 15.12 139.24 13.85Q139.82 12.58 139.82 10.27L139.82 10.27Q139.82 7.94 139.25 6.68Q138.67 5.42 137.06 5.42L137.06 5.42Q135.46 5.42 134.88 6.67Q134.30 7.92 134.30 10.27L134.30 10.27Q134.30 12.60 134.88 13.86Q135.46 15.12 137.06 15.12L137.06 15.12ZM147.50 6.70Q148.06 5.66 149.05 5.04Q150.05 4.42 151.44 4.42L151.44 4.42L151.44 6.19Q147.74 6.19 147.74 9.07L147.74 9.07L147.72 9.07L147.72 16.03L145.30 16.03L145.30 4.51L146.35 4.51L147.50 6.70ZM162.89 16.03L160.27 16.03L156.72 10.68L155.88 11.59L155.88 16.03L153.46 16.03L153.46 0.82L155.88 0.50L155.88 10.13L161.14 4.51L162.53 4.51L158.21 9.10L162.89 16.03ZM171.91 3Q171.29 3 170.86 2.56Q170.42 2.11 170.42 1.51L170.42 1.51Q170.42 0.89 170.86 0.44Q171.29 0 171.91 0L171.91 0Q172.54 0 172.98 0.44Q173.42 0.89 173.42 1.51L173.42 1.51Q173.42 2.11 172.97 2.56Q172.51 3 171.91 3L171.91 3ZM173.06 4.51L173.06 16.03L170.69 16.03L170.69 4.51L173.06 4.51ZM182.95 4.22Q186.65 4.22 186.65 7.90L186.65 7.90L186.65 16.03L184.22 16.03L184.22 8.09Q184.22 6.79 183.77 6.18Q183.31 5.57 182.33 5.57L182.33 5.57Q180.86 5.57 179.45 6.67L179.45 6.67L179.45 16.03L177.02 16.03L177.02 4.51L178.08 4.51L179.04 5.71Q179.90 5.04 180.95 4.63Q181.99 4.22 182.95 4.22L182.95 4.22ZM195.00 9.41Q196.78 9.89 197.58 10.63Q198.38 11.38 198.38 12.79L198.38 12.79Q198.38 14.42 197.24 15.37Q196.10 16.32 194.02 16.32L194.02 16.32Q191.76 16.32 190.66 15.40Q189.55 14.47 189.31 12.72L189.31 12.72L191.30 12.48Q191.42 13.73 192.10 14.42Q192.77 15.12 194.02 15.12L194.02 15.12Q195.02 15.12 195.67 14.57Q196.32 14.02 196.32 13.30L196.32 13.30Q196.32 12.58 195.74 12.14Q195.17 11.71 193.85 11.38L193.85 11.38L192.70 11.04Q191.16 10.63 190.34 9.84Q189.53 9.05 189.53 7.61L189.53 7.61Q189.53 6.05 190.68 5.14Q191.83 4.22 193.87 4.22L193.87 4.22Q196.01 4.22 197.04 5.12Q198.07 6.02 198.29 7.75L198.29 7.75L196.30 7.92Q196.18 6.74 195.56 6.08Q194.95 5.42 193.87 5.42L193.87 5.42Q192.74 5.42 192.17 5.88Q191.59 6.34 191.59 7.08L191.59 7.08Q191.59 7.90 192.16 8.33Q192.72 8.76 193.94 9.10L193.94 9.10L195.00 9.41ZM206.38 14.52L206.69 15.62Q205.42 16.32 204.24 16.32L204.24 16.32Q203.04 16.32 202.45 15.88Q201.86 15.43 201.72 14.81Q201.58 14.18 201.58 13.27L201.58 13.27L201.58 5.74L199.70 5.74L199.70 4.51L201.58 4.51L201.58 2.64L204.02 1.73L204.02 4.51L206.47 4.51L206.47 5.74L204.02 5.74L204.02 13.56Q204.02 14.35 204.23 14.65Q204.43 14.95 204.91 14.95L204.91 14.95Q205.58 14.95 206.38 14.52L206.38 14.52ZM210.89 16.32Q209.42 16.32 208.57 15.52Q207.72 14.71 207.72 13.32L207.72 13.32Q207.72 11.83 208.79 10.98Q209.86 10.13 212.04 9.74L212.04 9.74L214.70 9.31L214.70 8.14Q214.70 5.42 212.64 5.42L212.64 5.42Q211.42 5.42 210.86 6.12Q210.31 6.82 210.24 8.26L210.24 8.26L208.22 8.04Q208.37 6.14 209.38 5.18Q210.38 4.22 212.69 4.22L212.69 4.22Q214.92 4.22 216.02 5.22Q217.13 6.22 217.13 8.23L217.13 8.23L217.13 16.03L215.59 16.03L214.85 14.35Q214.10 15.31 213.07 15.82Q212.04 16.32 210.89 16.32L210.89 16.32ZM211.75 15.05Q212.57 15.05 213.37 14.57Q214.18 14.09 214.70 13.44L214.70 13.44L214.70 10.30L212.35 10.75Q211.15 11.02 210.54 11.59Q209.93 12.17 209.93 13.15L209.93 13.15Q209.93 14.02 210.42 14.53Q210.91 15.05 211.75 15.05L211.75 15.05ZM223.25 0.50L223.25 16.03L220.82 16.03L220.82 0.82L223.25 0.50ZM229.61 0.50L229.61 16.03L227.18 16.03L227.18 0.82L229.61 0.50ZM242.54 10.42L235.10 10.42L235.10 10.46Q235.10 13.01 235.72 14.06Q236.33 15.12 237.82 15.12L237.82 15.12Q240.26 15.12 240.38 12.60L240.38 12.60L242.38 12.70Q242.21 14.38 241.15 15.35Q240.10 16.32 237.74 16.32L237.74 16.32Q235.03 16.32 233.86 14.82Q232.68 13.32 232.68 10.27L232.68 10.27Q232.68 7.54 233.80 5.88Q234.91 4.22 237.72 4.22L237.72 4.22Q240.43 4.22 241.49 5.87Q242.54 7.51 242.54 10.18L242.54 10.18L242.54 10.42ZM237.67 5.42Q236.40 5.42 235.82 6.36Q235.25 7.30 235.13 9.22L235.13 9.22L240.19 9.22Q240.12 7.34 239.56 6.38Q238.99 5.42 237.67 5.42L237.67 5.42ZM247.80 6.70Q248.35 5.66 249.35 5.04Q250.34 4.42 251.74 4.42L251.74 4.42L251.74 6.19Q248.04 6.19 248.04 9.07L248.04 9.07L248.02 9.07L248.02 16.03L245.59 16.03L245.59 4.51L246.65 4.51L247.80 6.70Z" transform="translate(65 18.484)"></path></svg>